<?xml version="1.0" standalone="no"?>
<!DOCTYPE svg PUBLIC "-//W3C//DTD SVG 20010904//EN"
 "http://www.w3.org/TR/2001/REC-SVG-20010904/DTD/svg10.dtd">
<svg version="1.0" xmlns="http://www.w3.org/2000/svg"
 width="1314.000000pt" height="1314.000000pt" viewBox="0 0 1314.000000 1314.000000"
 preserveAspectRatio="xMidYMid meet">
<metadata>
Created by potrace 1.11, written by Peter Selinger 2001-2013
</metadata>
<g transform="translate(0.000000,1314.000000) scale(0.100000,-0.100000)"
fill="#000000" stroke="none">
<path d="M2820 8876 c-291 -34 -524 -102 -767 -222 -582 -289 -1022 -824
-1207 -1466 -55 -192 -83 -377 -92 -618 -37 -950 443 -1810 1246 -2233 331
-175 675 -257 1070 -257 520 0 973 150 1398 464 129 94 181 191 169 315 -12
139 -107 242 -237 258 -84 10 -138 -11 -302 -118 -303 -198 -543 -295 -813
-329 -112 -14 -345 -14 -445 0 -450 64 -858 321 -1143 719 -128 180 -251 464
-297 686 -71 341 -47 729 66 1050 177 506 557 903 1046 1091 215 83 456 115
723 95 362 -27 567 -110 870 -350 108 -86 145 -103 235 -109 96 -5 171 21 232
81 74 72 101 163 79 270 -16 75 -53 122 -163 208 -430 334 -794 462 -1348 474
-136 3 -244 0 -320 -9z"/>
<path d="M5484 8821 c-56 -14 -133 -64 -169 -110 -70 -89 -66 77 -63 -2246 l3
-2100 23 -47 c29 -59 88 -120 144 -150 37 -20 58 -23 143 -23 85 0 106 3 143
23 67 36 126 101 151 166 21 56 21 63 21 966 l0 910 870 0 c605 0 885 3 922
11 155 33 246 149 235 301 -9 141 -101 242 -241 267 -40 7 -350 11 -923 11
l-863 0 0 725 0 725 1233 0 c1374 0 1296 -4 1378 69 64 56 93 119 93 206 1
150 -60 239 -197 286 -49 17 -132 18 -1462 18 -775 -1 -1424 -4 -1441 -8z"/>
<path d="M9593 8811 c-101 -34 -165 -96 -198 -190 -13 -39 -15 -277 -15 -2137
l0 -2093 21 -57 c26 -70 89 -136 162 -170 41 -19 68 -24 133 -24 70 0 89 4
142 30 68 35 115 82 146 149 21 45 21 58 24 744 l3 697 492 0 c271 0 533 5
582 10 385 43 676 178 925 429 207 208 327 431 391 730 26 123 37 426 20 568
-45 365 -182 655 -425 899 -239 240 -514 371 -879 419 -97 12 -240 15 -795 15
-625 -1 -681 -2 -729 -19z m1507 -584 c154 -37 263 -88 371 -175 177 -141 294
-338 335 -567 17 -97 19 -294 4 -390 -60 -375 -345 -662 -725 -731 -62 -11
-189 -14 -577 -14 l-498 0 0 951 0 951 513 -5 c415 -4 524 -8 577 -20z"/>
</g>
</svg>
