<?xml version="1.0" encoding="UTF-8"?>
<svg width="140px" height="160px" viewBox="0 0 140 160" version="1.1" xmlns="http://www.w3.org/2000/svg" xmlns:xlink="http://www.w3.org/1999/xlink">
    <!-- Generator: Sketch 64 (93537) - https://sketch.com -->
    <title>Group 11</title>
    <desc>Created with Sketch.</desc>
    <g id="Page-1" stroke="none" stroke-width="1" fill="none" fill-rule="evenodd">
        <g id="vito" transform="translate(-50.000000, -40.000000)">
            <g id="Group-11" transform="translate(42.000000, 40.000000)">
                <circle id="Oval" fill="#FFB795" cx="78" cy="20" r="20"/>
                <circle id="Oval" fill="#7477F1" cx="78" cy="140" r="20"/>
                <path d="M95.1534983,50.2888014 C91.8634096,56.2267179 91.6790702,63.6928445 95.3205081,70 C98.9585444,76.3012638 105.507722,79.8738978 112.288382,80.0001103 C105.507722,80.1261022 98.9585444,83.6987362 95.3205081,90 C91.6790702,96.3071555 91.8634096,103.773282 95.1534983,109.711199 L95.1534983,109.711199 L95.1045329,109.629272 C91.5967882,103.856297 85.2487373,100 78,100 C70.7512627,100 64.4032118,103.856297 60.8954671,109.629272 L60.8954671,109.629272 L60.8465017,109.711199 C64.1365904,103.773282 64.3209298,96.3071555 60.6794919,90 C57.0414455,83.6987188 50.4922424,80.1260826 43.7115623,79.9998907 C50.4922424,79.8739174 57.0414455,76.3012812 60.6794919,70 C64.3209298,63.6928445 64.1365904,56.2267179 60.8465017,50.2888014 L60.8465017,50.2888014 L60.8954671,50.3707275 C64.4032118,56.1437026 70.7512627,60 78,60 C85.2487373,60 91.5967882,56.1437026 95.1045329,50.3707275 L95.1045329,50.3707275 Z" id="Combined-Shape" fill="#828683"/>
                <circle id="Oval" fill="#FFB1B1" transform="translate(128.000000, 50.000000) rotate(60.000000) translate(-128.000000, -50.000000) " cx="128" cy="50" r="20"/>
                <circle id="Oval" fill="#5473EF" transform="translate(28.000000, 110.000000) rotate(60.000000) translate(-28.000000, -110.000000) " cx="28" cy="110" r="20"/>
                <circle id="Oval" fill="#3365FF" transform="translate(28.000000, 50.000000) rotate(-60.000000) translate(-28.000000, -50.000000) " cx="28" cy="50" r="20"/>
                <circle id="Oval" fill="#B38ECB" transform="translate(128.000000, 110.000000) rotate(-60.000000) translate(-128.000000, -110.000000) " cx="128" cy="110" r="20"/>
            </g>
        </g>
    </g>
</svg>